<?xml version="1.0" encoding="UTF-8"?>
<svg xmlns="http://www.w3.org/2000/svg" xmlns:xlink="http://www.w3.org/1999/xlink" viewBox="0 0 50 50" version="1.1" width="50px" height="50px">
<g id="surface1">
<path style=" " d="M 20 3 C 19.734375 3 19.480469 3.105469 19.292969 3.292969 L 17.585938 5 L 9.386719 5 C 7.53125 5 5.90625 6.289063 5.488281 8.101563 L 3.203125 18 L 2 18 C 0.90625 18 0 18.90625 0 20 L 0 24 C 0 25.09375 0.90625 26 2 26 L 2.480469 26 L 7.828125 44.542969 C 8.132813 45.597656 9.054688 46 10 46 L 40 46 C 40.945313 46 41.867188 45.597656 42.171875 44.542969 L 47.519531 26 L 48 26 C 49.09375 26 50 25.09375 50 24 L 50 20 C 50 18.90625 49.09375 18 48 18 L 46.796875 18 L 44.511719 8.101563 C 44.09375 6.289063 42.46875 5 40.613281 5 L 32.414063 5 L 30.707031 3.292969 C 30.519531 3.105469 30.265625 3 30 3 Z M 20.414063 5 L 29.585938 5 L 31.292969 6.707031 C 31.480469 6.894531 31.734375 7 32 7 L 40.613281 7 C 41.550781 7 42.351563 7.636719 42.5625 8.550781 L 44.742188 18 L 5.257813 18 L 7.4375 8.550781 C 7.648438 7.640625 8.449219 7 9.386719 7 L 18 7 C 18.265625 7 18.519531 6.894531 18.707031 6.707031 Z M 2 20 L 48 20 L 48 24 L 2 24 Z M 4.5625 26 L 45.4375 26 L 40.25 43.984375 C 40.320313 43.746094 40.15625 44 40 44 L 10 44 C 9.84375 44 9.679688 43.746094 9.75 43.984375 Z M 17 27 C 15.355469 27 14 28.355469 14 30 L 14 39.921875 C 14 41.570313 15.355469 42.921875 17 42.921875 C 18.644531 42.921875 20 41.570313 20 39.921875 L 20 30 C 20 28.355469 18.644531 27 17 27 Z M 25 27 C 23.351563 27 22 28.355469 22 30 L 22 39.921875 C 22 41.570313 23.355469 42.921875 25 42.921875 C 26.644531 42.921875 28 41.570313 28 39.921875 L 28 30 C 28 28.355469 26.644531 27 25 27 Z M 33 27 C 31.355469 27 30 28.355469 30 30 L 30 39.921875 C 30 41.570313 31.355469 42.921875 33 42.921875 C 34.644531 42.921875 36 41.570313 36 39.921875 L 36 30 C 36 28.355469 34.644531 27 33 27 Z M 17 29 C 17.558594 29 18 29.441406 18 30 L 18 39.921875 C 18 40.484375 17.558594 40.921875 17 40.921875 C 16.441406 40.921875 16 40.484375 16 39.921875 L 16 30 C 16 29.441406 16.441406 29 17 29 Z M 25 29 C 25.558594 29 26 29.441406 26 30 L 26 39.921875 C 26 40.484375 25.558594 40.921875 25 40.921875 C 24.441406 40.921875 24 40.484375 24 39.921875 L 24 30 C 24 29.441406 24.4375 29 25 29 Z M 33 29 C 33.558594 29 34 29.441406 34 30 L 34 39.921875 C 34 40.484375 33.558594 40.921875 33 40.921875 C 32.441406 40.921875 32 40.484375 32 39.921875 L 32 30 C 32 29.441406 32.441406 29 33 29 Z "/>
</g>
</svg>
