<?xml version="1.0"?>
<svg xmlns="http://www.w3.org/2000/svg" xmlns:xlink="http://www.w3.org/1999/xlink" version="1.1" viewBox="0 0 224 224" width="50px" height="50px"><g fill="none" fill-rule="nonzero" stroke="none" stroke-width="1" stroke-linecap="butt" stroke-linejoin="miter" stroke-miterlimit="10" stroke-dasharray="" stroke-dashoffset="0" font-family="none" font-weight="none" font-size="none" text-anchor="none" style="mix-blend-mode: normal"><path d="M0,224v-224h224v224z" fill="none"/><g fill="#ffffff"><g id="surface1"><path d="M112,4.48c-39.515,0 -71.68,32.165 -71.68,71.68c0,63.2275 65.5375,138.635 68.32,141.82c0.8575,0.98 2.065,1.54 3.36,1.54c1.3825,-0.0875 2.5025,-0.56 3.36,-1.54c2.7825,-3.2375 68.32,-79.94 68.32,-141.82c0,-39.515 -32.165,-71.68 -71.68,-71.68zM112,53.76c14.84,0 26.88,12.04 26.88,26.88c0,14.84 -12.04,26.88 -26.88,26.88c-14.84,0 -26.88,-12.04 -26.88,-26.88c0,-14.84 12.04,-26.88 26.88,-26.88z"/></g></g></g></svg>
