<?xml version="1.0"?>
<svg xmlns="http://www.w3.org/2000/svg" xmlns:xlink="http://www.w3.org/1999/xlink" version="1.1" viewBox="0 0 224 224" width="50px" height="50px"><g fill="none" fill-rule="nonzero" stroke="none" stroke-width="1" stroke-linecap="butt" stroke-linejoin="miter" stroke-miterlimit="10" stroke-dasharray="" stroke-dashoffset="0" font-family="none" font-weight="none" font-size="none" text-anchor="none" style="mix-blend-mode: normal"><path d="M0,224v-224h224v224z" fill="none"/><g fill="#ffffff"><g id="surface1"><path d="M215.0225,91.2975l0.0175,-66.6575c0,-8.645 -7.035,-15.68 -15.68,-15.68l-66.64,0.0175l-2.8175,-0.0175c-5.81,0 -11.34,0.3325 -15.33,4.3225l-101.815,101.815c-2.45,2.4325 -3.7975,5.6875 -3.7975,9.1525c0,3.465 1.3475,6.72 3.7975,9.1525l77.84,77.84c2.4325,2.45 5.6875,3.7975 9.1525,3.7975c3.4475,0 6.72,-1.3475 9.1525,-3.7975l101.815,-101.815c4.375,-4.3575 4.34,-10.64 4.3225,-16.695zM174.72,62.72c-7.42,0 -13.44,-6.02 -13.44,-13.44c0,-7.42 6.02,-13.44 13.44,-13.44c7.42,0 13.44,6.02 13.44,13.44c0,7.42 -6.02,13.44 -13.44,13.44z"/></g></g></g></svg>
