<?xml version="1.0"?>
<svg xmlns="http://www.w3.org/2000/svg" xmlns:xlink="http://www.w3.org/1999/xlink" version="1.1" viewBox="0 0 224 224" width="50px" height="50px"><g fill="none" fill-rule="nonzero" stroke="none" stroke-width="1" stroke-linecap="butt" stroke-linejoin="miter" stroke-miterlimit="10" stroke-dasharray="" stroke-dashoffset="0" font-family="none" font-weight="none" font-size="none" text-anchor="none" style="mix-blend-mode: normal"><path d="M0,224v-224h224v224z" fill="none"/><g fill="#ffffff"><g id="surface1"><path d="M155.9075,151.4275c-7.6125,-3.1325 -17.0275,-7.175 -17.0275,-10.3075v-20.16c11.2,-8.505 17.92,-21.945 17.92,-35.84v-26.88c0,-24.64 -20.16,-44.8 -44.8,-44.8c-24.64,0 -44.8,20.16 -44.8,44.8v26.88c0,13.895 6.72,27.7725 17.92,35.84v20.16c0,2.695 -9.415,6.72 -17.0275,10.3075c-18.3575,7.6125 -45.6925,19.2675 -45.6925,50.1725v4.48h179.2v-4.48c0,-30.905 -27.335,-42.56 -45.6925,-50.1725z"/></g></g></g></svg>
